{"asset":{"generator":"glTF-Transform v4.0.2","version":"2.0"},"accessors":[{"type":"VEC3","componentType":5126,"count":1659,"max":[0.35820895433425903,1.0229052305221558,0.005398052278906107],"min":[-0.35820895433425903,0.02290511131286621,0.001373126171529293],"bufferView":0,"byteOffset":0},{"type":"VEC3","componentType":5126,"count":1659,"bufferView":0,"byteOffset":12},{"type":"VEC2","componentType":5126,"count":1659,"bufferView":0,"byteOffset":24},{"type":"SCALAR","componentType":5123,"count":4107,"bufferView":1,"byteOffset":0},{"type":"SCALAR","componentType":5123,"count":3576,"bufferView":1,"byteOffset":8216},{"type":"SCALAR","componentType":5123,"count":7164,"bufferView":1,"byteOffset":15368},{"type":"VEC3","componentType":5126,"count":1196,"max":[0.06820666044950485,1.2293701171875,0.03205162659287453],"min":[-0.06900214403867722,1.1182847023010254,-0.031905218958854675],"bufferView":2,"byteOffset":0},{"type":"VEC3","componentType":5126,"count":1196,"bufferView":2,"byteOffset":12},{"type":"VEC2","componentType":5126,"count":1196,"bufferView":2,"byteOffset":24},{"type":"VEC3","componentType":5126,"count":1775,"max":[0.024095552042126656,1.1183339357376099,0.04557735472917557],"min":[-0.02497350051999092,0.9323668479919434,-0.044764820486307144],"bufferView":3,"byteOffset":0},{"type":"VEC3","componentType":5126,"count":1775,"bufferView":3,"byteOffset":12},{"type":"VEC2","componentType":5126,"count":1775,"bufferView":3,"byteOffset":24}],"bufferViews":[{"buffer":0,"byteOffset":0,"byteLength":53088,"byteStride":32,"target":34962},{"buffer":0,"byteOffset":53088,"byteLength":29696,"target":34963},{"buffer":0,"byteOffset":82784,"byteLength":38272,"byteStride":32,"target":34962},{"buffer":0,"byteOffset":121056,"byteLength":56800,"byteStride":32,"target":34962}],"samplers":[{"magFilter":9729,"minFilter":9987,"wrapS":10497,"wrapT":10497}],"textures":[{"source":0,"sampler":0}],"images":[{"name":"card","mimeType":"image/png","uri":"baseColor.png"}],"buffers":[{"uri":"card.bin","byteLength":177856}],"materials":[{"name":"base.001","doubleSided":true,"pbrMetallicRoughness":{"roughnessFactor":0.5,"metallicFactor":0,"baseColorTexture":{"index":0}}},{"name":"metal.001","doubleSided":true,"pbrMetallicRoughness":{"baseColorFactor":[0.03638001158833504,0.03638001158833504,0.03638001158833504,1],"roughnessFactor":0.5}}],"meshes":[{"name":"card.001","primitives":[{"attributes":{"POSITION":0,"NORMAL":1,"TEXCOORD_0":2},"mode":4,"material":0,"indices":3}]},{"name":"clip.001","primitives":[{"attributes":{"POSITION":6,"NORMAL":7,"TEXCOORD_0":8},"mode":4,"material":1,"indices":4}]},{"name":"clamp.001","primitives":[{"attributes":{"POSITION":9,"NORMAL":10,"TEXCOORD_0":11},"mode":4,"material":1,"indices":5}]}],"nodes":[{"name":"card","mesh":0},{"name":"clip","mesh":1},{"name":"clamp","mesh":2}],"scenes":[{"name":"Scene","nodes":[0,1,2]}],"scene":0}